<?xml version="1.0" encoding="UTF-8"?>
<svg xmlns="http://www.w3.org/2000/svg" version="1.1" viewBox="0 0 595.3 841.9">
  <defs>
    <style>
      .cls-1 {
        fill: #b7683e;
      }

      .cls-2 {
        fill: #009240;
      }

      .cls-3 {
        fill: #814b3e;
      }

      .cls-4 {
        fill: #84c326;
      }
    </style>
  </defs>
  <!-- Generator: Adobe Illustrator 28.6.0, SVG Export Plug-In . SVG Version: 1.2.0 Build 709)  -->
  <g>
    <g id="Camada_1">
      <path class="cls-3" d="M326.8,516c-2.8,0-5.6-.8-8.8-2.5-2.5-1.3-4.7-1.9-6.8-1.9s-.9,0-1.3,0c-1.5.2-2.8.6-3.8,1.1-3.2,1.8-6.2,2.6-9.1,2.6s-3.8-.4-5.6-1.2h0c-.4-.2-.9-.4-1.4-.7-2.1-1.3-4.1-1.9-6.4-1.9s-4.5.6-6.9,1.9c-3.2,1.7-6,2.5-8.8,2.5h-.3c-2.4,0-4.4-.9-5.6-2.5-1.2-1.6-1.5-3.7-.9-6.1.8-3,2.7-5.3,4.5-7.4.5-.6,1-1.3,1.4-2.1,5.4-11.3,8.9-22.2,10.8-33.1,1.7-9.7,2-18.6,1.1-27.2-.4-3.2-.9-6.4-1.4-9.5l-.2-1.5c-.1-.8-.4-1.6-.8-2.3-1.6-2.7-3.2-5.7-3.4-9.3,0-1.1,0-2.1.2-2.9.5-2.2,2.2-3.6,4.2-3.6s1,0,1.5.2c1.6.5,3.2,1.3,5,2.6,1.1.8,2.6,1.6,4.2,1.6s1.2-.1,1.8-.4c.6-.3,1.3-.8,1.9-1.3l.5-.4c1.7-1.3,3.3-1.9,5-1.9s2.9.5,4.4,1.4c.5.3,1,.7,1.6,1.1,1.1.9,2.2,1.3,3.4,1.3s1.8-.3,2.8-.8c.3-.2.7-.4,1-.7.3-.2.6-.4.8-.6l.5-.3c.6-.4,1.3-.9,2.1-1.2,1.2-.6,2.3-.8,3.3-.8s2.3.4,3.2,1.3c1,1,1.6,2.7,1.6,4.7,0,2.6-.8,5.2-2.3,7.9-1.2,2.1-2,4.2-2.4,6.3-1.6,7.6-2.1,15.7-1.7,24,.7,11.5,3.2,22.9,7.4,34,1.2,3.2,2.6,6.5,4.2,9.9.6,1.3,1.4,2.6,2.3,3.8l.3.4c1.6,2,3.2,4.1,4,6.9.6,2.3.3,4.4-.9,6-1.2,1.6-3.2,2.5-5.6,2.5h-.3s0,0,0,0ZM308.1,501c1.3,0,2.7.3,4,1l.5.3c1.7.9,3.4,1.7,5.1,2.2.3,0,.5.1.7.1.5,0,1-.2,1.3-.6.4-.5.6-1.3.5-2.1-.3-1.9-1-3.7-2.2-5.2-2.1-2.5-3.2-5.3-4.2-7.9-3.2-8.1-6.4-16.8-7.3-26-.7-7.6-1.2-15.7-.5-23.9.3-2.9.8-6.4,2.5-9.7.6-1.2,1-2.6,1.4-4v-.5c.4-.8.3-1.7,0-2.4-.2-.3-.3-.5-.4-.6,0,0-.1,0-.2,0-.4,0-1,.4-1.3.7-.5.3-.9.7-1.3,1.1-.4.3-.7.6-1.1.9-.8.6-1.7.9-2.6.9s-2.4-.6-3.2-1.6c-.8-1-1.5-1.5-2.3-1.5s-1,.2-1.6.7c-1.2,1-2.7,1.5-4.2,1.5s-2.8-.5-3.9-1.4l-.5-.4c-.6-.5-1.2-.9-1.7-.9s-.3,0-.5.2c-.8.5-.7,1.7-.4,2.5.5,1.7,1.2,3.5,1.8,5.2h0c.3.8.5,1.5.8,2.1,0,.1.1.3.2.4.2.4.4.9.5,1.4.1,1.2.3,2.4.4,3.6.4,3,.8,6.2.9,9.3.1,9.3-.5,16.8-2,23.6-1.6,7.5-4.4,14.5-7.6,22.3-.4,1-1,2-1.7,2.9-1.6,2.1-3.1,4.3-3.5,7-.1.8,0,1.5.5,2,.3.4.8.6,1.4.6s.4,0,.6,0c1.5-.3,3-.9,4.2-1.7,2-1.2,4-1.8,5.9-1.8s3.6.5,5.4,1.5c1.8,1.1,3.6,1.6,5.4,1.6s3.8-.6,5.8-1.8c1.5-.9,3-1.3,4.5-1.3Z"/>
      <path class="cls-1" d="M320.7,414.2c0,2.7-.9,5.1-2.2,7.4s-2.1,4.3-2.6,6.6c-1.6,8-2.1,16.1-1.7,24.3.7,11.8,3.2,23.3,7.5,34.3,1.3,3.4,2.7,6.7,4.2,10s1.5,2.8,2.5,4.1c1.7,2.1,3.4,4.2,4.1,6.9,1,4-1.2,7-5.4,7.1-3.1,0-5.9-.9-8.6-2.3-2.7-1.4-5.6-2.3-8.7-2-1.4.2-2.9.6-4.2,1.2-4.4,2.4-8.9,3.4-13.7,1.4-.4-.2-.9-.4-1.3-.6-4.8-3-9.6-2.6-14.4,0-2.7,1.4-5.5,2.4-8.6,2.3-4.3,0-6.5-3-5.4-7.2.7-2.8,2.5-4.9,4.3-7s1.1-1.5,1.5-2.3c5.1-10.7,8.9-21.8,10.9-33.4,1.6-9.1,2.1-18.3,1.1-27.5-.4-3.7-1-7.4-1.6-11s-.5-1.9-1-2.7c-1.6-2.7-3.1-5.5-3.2-8.8,0-.9,0-1.8.2-2.6.5-2.1,2.2-3.2,4.3-2.5,1.7.6,3.3,1.4,4.7,2.4,2.2,1.5,4.5,2.4,7.1,1.4,1-.4,1.8-1.1,2.6-1.8,2.7-2.1,5.2-2.3,8.1-.5.5.3,1,.7,1.4,1.1,2.3,1.9,4.8,2.1,7.4.7.7-.4,1.2-.9,1.9-1.3.8-.5,1.6-1.1,2.5-1.5,3.8-1.8,6.4-.1,6.4,4.1ZM311.2,425.1c.3-1.1.2-2.2-.3-3.2s-.4-.8-.7-1c-.9-.8-2,0-2.8.5-.9.6-1.7,1.4-2.5,2-1.4,1-3.1,1-4.3-.5-1.7-2.1-3.6-2.4-5.4-1s-4.7,1.7-6.7.2-.2-.1-.2-.2c-1.1-.8-2.3-1.9-3.8-1-1.4.8-1.3,2.5-.9,3.8.7,2.5,1.8,4.9,2.6,7.4.2.5.5,1,.6,1.6.5,4.2,1.2,8.5,1.3,12.7.1,7.8-.3,15.6-1.9,23.3-1.7,7.7-4.5,14.9-7.5,22.1s-.9,1.8-1.5,2.6c-1.7,2.3-3.3,4.6-3.7,7.5-.3,2.5,1.4,4.4,3.9,3.8,1.6-.4,3.1-1,4.5-1.8,3.4-2.1,6.7-2.3,10.1-.3,4.2,2.4,8.2,2.2,12.3-.2,2.3-1.4,4.8-1.6,7.4-.3,1.9,1,3.8,2,5.9,2.6,2.5.7,4.3-1.2,4-3.8-.3-2.2-1.1-4.1-2.5-5.7-1.9-2.3-3-4.9-4-7.5-3.3-8.3-6.4-16.7-7.2-25.7-.7-7.9-1.2-15.8-.5-23.7.3-3.2.9-6.3,2.4-9.3.8-1.4,1.2-3.1,1.6-4.8Z"/>
      <g>
        <path class="cls-2" d="M360.5,414.6c0,14-7.4,24.4-18.8,28-6.9,2.1-13.5,1-19.5-3.1-1.9-1.3-2.3-2.9-1.2-5,.4-.7.8-1.5,1.4-2.1,1.4-1.7,2.8-1.8,4.7-.8,1.7.9,3.5,2,5.4,2.4,5.9,1.2,10.9-.8,15-5.2,5.6-6.2,6.1-15.8,1-22-1-1.2-2.3-2.2-3.6-3.1-2.2-1.6-2.5-3-1.3-5.5,0-.2.2-.4.3-.5,1.8-3.1,3.7-3.5,6.6-1.4,6.8,5,9.8,11.9,9.9,18.2ZM359.7,416.8c-.2-1.6-.2-3.1-.4-4.5-1.1-6.2-4-11.3-9.1-15.1-2.7-1.9-3.9-1.7-5.5,1.2,0,.1-.1.2-.2.3-1,1.9-.7,2.8,1,4.1,1.3,1.1,2.7,2.2,3.8,3.5,4.5,5.7,4.9,14.1,1,20.2-3.6,5.7-8.6,8.9-15.5,8.7-2.8,0-5.3-1.2-7.7-2.6-.7-.4-1.9-.8-2.5-.6-1.7.7-2.4,2.2-2.9,3.9-.4,1.5.6,2.4,1.8,3.1,7,4.5,14.4,4.9,21.8,1.2,9.6-4.8,14.1-13,14.6-23.5Z"/>
        <path class="cls-2" d="M258.6,434.4c2.9.2,5.6-.8,8-2.4,2.4-1.6,3.9-1.3,5.5,1.1.3.5.6,1,.9,1.6,1,2.1.6,3.6-1.3,4.9-7.7,5.1-15.7,5.4-23.8,1.2-8.2-4.3-12.8-11.3-14.1-20.3-1.2-8.7,1.2-16.4,7.8-22.4,1-.9,2.2-1.7,3.4-2.4,1.4-.8,2.7-.6,3.8.6.5.5,1,1.2,1.3,1.8,1.5,2.7,1.2,4.1-1.3,5.9-6.7,4.8-8.7,14.1-4.7,21.5,2.6,4.8,6.5,7.9,11.9,8.9.2,0,.4,0,.6,0,.6,0,1.3,0,1.9,0ZM234.6,416.6c0,1.1-.1,2.2,0,3.2,1.3,10.5,8.8,19.7,19,22.1,6.3,1.5,12.1.5,17.5-3.1.6-.4,1.3-1,1.4-1.6.4-2.1-.7-3.6-2.2-4.9-1.2-1.1-2.4-.3-3.5.4-3.1,2-6.5,2.9-10.2,2.4-10-1.5-16.9-11.2-15.1-21.2.8-4.7,3.2-8.4,7.1-11.1,1.8-1.3,2-2.3,1-4.3-.2-.4-.5-.8-.8-1.2-1.3-1.7-2.4-1.9-4.2-.7-6.9,4.8-10,11.6-10,19.8Z"/>
        <path class="cls-2" d="M233.4,370.6c.6-10.5,5.1-18.8,15-23.5,6.7-3.1,13.4-2.7,19.8,1.2,1.9,1.1,2.3,2.4,1.5,4.5-.3.7-.7,1.4-1.1,2.1-1.2,1.8-2.7,2.3-4.5,1.1-7.9-5-17.6-.5-20.9,7.4-2.7,6.3-2.2,12.2,2.4,17.6.8,1,2,1.7,3,2.5,2.2,1.5,2.6,2.8,1.5,5.2-.1.3-.3.6-.4.8-1.6,2.7-3.1,3.1-5.7,1.4-5.9-3.8-9.2-9.4-10.2-16.3-.2-1.2-.2-2.5-.4-3.9ZM234.4,370c.2,8.9,3.2,15.5,10.1,20,2.1,1.4,3.3,1.1,4.4-1.1.1-.2.3-.5.4-.7.9-2,.6-2.9-1.2-4.1-1.2-.8-2.4-1.7-3.3-2.7-5-5.9-5.4-14.1-1-20.8,4.3-6.7,13.1-10,20.6-5.4,1.7,1,2.7.7,3.8-1,.2-.4.5-.8.7-1.3.8-1.9.6-2.9-1.2-3.9-6.2-3.6-12.6-4-19-.8-9.4,4.6-13.6,12.5-14.1,22Z"/>
        <path class="cls-2" d="M297,327.4c11.7,0,21.8,8.7,23.3,20.4.2,1.4.1,2.8,0,4.2,0,1.3-.8,2.3-2.1,2.5-1.2.2-2.5.3-3.7.1-1.8-.3-2.5-1.4-2.5-3.4,0-4-1.2-7.7-4-10.6-4.3-4.4-9.5-5.9-15.4-4.2-6.1,1.7-9.7,6-10.8,12.2-.2,1.1-.1,2.3-.3,3.5,0,.4-.2.9-.4,1.2-.8,1.3-3.1,1.9-5.4,1.3-1.7-.4-2.5-1.4-2.5-3.3-.1-5.5,1.4-10.4,4.8-14.7,4.8-6.1,11.1-9.1,18.9-9.2ZM296.9,328.4c-4.3-.1-8.4,1-12.1,3.4-6.9,4.5-10.5,10.9-10.5,19.3,0,1.5.5,2.3,1.7,2.5,1,.2,2.1.1,3.2,0,1.1-.1,1.6-.9,1.7-2,0-.4,0-.9,0-1.3.4-6.3,3.4-11,9.1-13.8,5.7-2.7,11.3-2.2,16.4,1.5,4.5,3.2,6.5,7.6,6.6,13,0,1.7.5,2.4,1.9,2.6,1,.2,2,.1,3,0,1.2-.2,1.8-1,1.8-2.2,0-1.7,0-3.4-.4-5-2.1-10.6-11.3-18.1-22.4-18Z"/>
        <path class="cls-2" d="M338.1,345.1c7.7.4,14.3,4.8,18.8,12.5,2.5,4.2,3.7,8.9,3.5,13.7-.3,8-3.3,14.6-10.1,19.3-.5.3-1,.6-1.6.9-1.4.6-2.5.5-3.4-.7-.8-1.1-1.5-2.4-1.9-3.8-.5-1.7.6-2.8,1.9-3.6,2.3-1.3,4-3.2,5.2-5.5,5.2-10-1.4-23.1-12.7-24-2.6-.2-5,.5-7.3,1.8-2.6,1.5-3.9,1.2-5.5-1.5-.3-.5-.6-1.1-.8-1.6-.6-1.9-.2-3.1,1.5-4.2,3.3-2.2,7-3.2,12.4-3.2ZM359.6,372.8c0-9.7-2.9-16.2-8.7-21.4-6.7-5.9-16.3-7.4-24.2-2.6-1,.6-2,1.3-1.7,2.7.4,1.6,1,3.3,2.7,4,.4.2,1,0,1.5-.2.5-.2.9-.5,1.4-.7,2.7-1.5,5.6-2,8.7-1.6,10.7,1.7,16.7,13.6,13,23.3-1.3,3.3-3.3,5.9-6.4,7.8-1.7,1-1.9,2-1.1,3.7.2.4.4.8.6,1.2,1.2,2,2.3,2.3,4.2,1,6.9-4.5,9.9-11.1,10.1-17.3Z"/>
      </g>
      <g>
        <path class="cls-4" d="M359.7,416.8c-.6,10.5-5,18.7-14.6,23.5-7.3,3.7-14.7,3.3-21.8-1.2-1.1-.7-2.1-1.5-1.8-3.1.4-1.7,1.2-3.3,2.9-3.9.7-.3,1.8.1,2.5.6,2.4,1.5,4.9,2.6,7.7,2.6,6.9.2,11.9-3,15.5-8.7,3.9-6.2,3.5-14.6-1-20.2-1.1-1.3-2.4-2.4-3.8-3.5-1.6-1.3-1.9-2.3-1-4.1,0-.1.1-.2.2-.3,1.7-2.9,2.8-3.2,5.5-1.2,5.2,3.7,8.1,8.8,9.1,15.1.2,1.4.3,2.9.4,4.5Z"/>
        <path class="cls-4" d="M234.6,416.6c0-8.3,3.1-15.1,10-19.8,1.8-1.2,2.9-1.1,4.2.7.3.4.6.8.8,1.2,1.1,1.9.8,3-1,4.3-3.9,2.7-6.2,6.4-7.1,11.1-1.8,10,5.1,19.7,15.1,21.2,3.7.5,7.1-.3,10.2-2.4,1.1-.7,2.2-1.5,3.5-.4,1.5,1.3,2.6,2.8,2.2,4.9-.1.6-.8,1.2-1.4,1.6-5.3,3.6-11.2,4.6-17.5,3.1-10.2-2.4-17.7-11.6-19-22.1-.1-1.1,0-2.2,0-3.2Z"/>
        <path class="cls-4" d="M234.4,370c.5-9.4,4.8-17.4,14.1-22,6.4-3.1,12.8-2.8,19,.8,1.8,1,2.1,2,1.2,3.9-.2.4-.4.9-.7,1.3-1,1.7-2.1,2.1-3.8,1-7.4-4.6-16.3-1.3-20.6,5.4-4.3,6.7-3.9,14.9,1,20.8.9,1.1,2.1,1.9,3.3,2.7,1.8,1.3,2.1,2.1,1.2,4.1-.1.3-.2.5-.4.7-1.2,2.2-2.3,2.5-4.4,1.1-6.9-4.6-9.8-11.2-10.1-20Z"/>
        <path class="cls-4" d="M296.9,328.4c11.1,0,20.3,7.4,22.4,18,.3,1.6.3,3.3.4,5,0,1.2-.6,2-1.8,2.2-1,.1-2,.2-3,0-1.4-.2-1.8-.9-1.9-2.6-.1-5.4-2.1-9.9-6.6-13-5.2-3.6-10.7-4.2-16.4-1.5-5.7,2.7-8.7,7.4-9.1,13.8,0,.4,0,.9,0,1.3,0,1.1-.6,1.9-1.7,2-1,.1-2.2.2-3.2,0-1.3-.2-1.7-1-1.7-2.5,0-8.3,3.5-14.8,10.5-19.3,3.7-2.4,7.8-3.6,12.1-3.4Z"/>
        <path class="cls-4" d="M359.6,372.8c-.2,6.2-3.2,12.8-10.1,17.3-2,1.3-3,1-4.2-1-.2-.4-.4-.8-.6-1.2-.8-1.7-.5-2.7,1.1-3.7,3.1-1.8,5.2-4.5,6.4-7.8,3.7-9.7-2.3-21.6-13-23.3-3.1-.5-6,0-8.7,1.6-.5.2-.9.6-1.4.7-.5.2-1.1.3-1.5.2-1.7-.7-2.3-2.4-2.7-4-.3-1.4.7-2.1,1.7-2.7,7.9-4.7,17.6-3.3,24.2,2.6,5.8,5.2,8.7,11.6,8.7,21.4Z"/>
      </g>
    </g>
  </g>
</svg>