<?xml version="1.0" encoding="UTF-8"?>
<svg xmlns="http://www.w3.org/2000/svg" version="1.1" viewBox="0 0 127.6 189.3">
  <defs>
    <style>
      .cls-1 {
        fill: #b7683e;
      }

      .cls-2 {
        fill: #009240;
      }

      .cls-3 {
        fill: #814b3e;
      }

      .cls-4 {
        fill: #84c326;
      }
    </style>
  </defs>
  <!-- Generator: Adobe Illustrator 28.6.0, SVG Export Plug-In . SVG Version: 1.2.0 Build 709)  -->
  <g>
    <g id="Camada_1">
      <g id="Camada_1-2" data-name="Camada_1">
        <path class="cls-3" d="M93.7,189.3c-2.8,0-5.6-.8-8.8-2.5-2.5-1.3-4.7-1.9-6.8-1.9s-.9,0-1.3,0c-1.5.2-2.8.6-3.8,1.1-3.2,1.8-6.2,2.6-9.1,2.6s-3.8-.4-5.6-1.2h0c-.4-.2-.9-.4-1.4-.7-2.1-1.3-4.1-1.9-6.4-1.9s-4.5.6-6.9,1.9c-3.2,1.7-6,2.5-8.8,2.5h-.3c-2.4,0-4.4-.9-5.6-2.5-1.2-1.6-1.5-3.7-.9-6.1.8-3,2.7-5.3,4.5-7.4.5-.6,1-1.3,1.4-2.1,5.4-11.3,8.9-22.3,10.8-33.2,1.7-9.7,2-18.7,1.1-27.3-.4-3.2-.9-6.4-1.4-9.5l-.2-1.5c-.1-.8-.4-1.6-.8-2.3-1.6-2.7-3.2-5.7-3.4-9.3,0-1.1,0-2.1.2-2.9.5-2.2,2.2-3.6,4.2-3.6s1,0,1.5.2c1.6.5,3.2,1.3,5,2.6,1.1.8,2.6,1.6,4.2,1.6s1.2-.1,1.8-.4c.6-.3,1.3-.8,1.9-1.3l.5-.4c1.7-1.3,3.3-1.9,5-1.9s2.9.5,4.4,1.4c.5.3,1,.7,1.6,1.1,1.1.9,2.2,1.3,3.4,1.3s1.8-.3,2.8-.8c.3-.2.7-.4,1-.7.3-.2.6-.4.8-.6l.5-.3c.6-.4,1.3-.9,2.1-1.2,1.2-.6,2.3-.8,3.3-.8s2.3.4,3.2,1.3c1,1,1.6,2.7,1.6,4.7s-.8,5.2-2.3,7.9c-1.2,2.1-2,4.2-2.4,6.3-1.6,7.6-2.1,15.8-1.7,24.1.7,11.5,3.2,23,7.4,34.1,1.2,3.2,2.6,6.5,4.2,9.9.6,1.3,1.4,2.6,2.3,3.8l.3.4c1.6,2,3.2,4.1,4,6.9.6,2.3.3,4.4-.9,6-1.2,1.6-3.2,2.5-5.6,2.5h-.6ZM75,174.2c1.3,0,2.7.3,4,1l.5.3c1.7.9,3.4,1.7,5.1,2.2.3,0,.5.1.7.1.5,0,1-.2,1.3-.6.4-.5.6-1.3.5-2.1-.3-1.9-1-3.7-2.2-5.2-2.1-2.5-3.2-5.3-4.2-7.9-3.2-8.1-6.4-16.9-7.3-26.1-.7-7.6-1.2-15.8-.5-24,.3-2.9.8-6.4,2.5-9.7.6-1.2,1-2.6,1.4-4v-.5c.4-.8.3-1.7,0-2.4-.2-.3-.3-.5-.4-.6h-.2c-.4,0-1,.4-1.3.7-.5.3-.9.7-1.3,1.1-.4.3-.7.6-1.1.9-.8.6-1.7.9-2.6.9s-2.4-.6-3.2-1.6c-.8-1-1.5-1.5-2.3-1.5s-1,.2-1.6.7c-1.2,1-2.7,1.5-4.2,1.5s-2.8-.5-3.9-1.4l-.5-.4c-.6-.5-1.2-.9-1.7-.9s-.3,0-.5.2c-.8.5-.7,1.7-.4,2.5.5,1.7,1.2,3.5,1.8,5.2h0c.3.8.5,1.5.8,2.1,0,.1.1.3.2.4.2.4.4.9.5,1.4.1,1.2.3,2.4.4,3.6.4,3,.8,6.2.9,9.3.1,9.3-.5,16.9-2,23.7-1.6,7.5-4.4,14.6-7.6,22.4-.4,1-1,2-1.7,2.9-1.6,2.1-3.1,4.3-3.5,7-.1.8,0,1.5.5,2,.3.4.8.6,1.4.6h.6c1.5-.3,3-.9,4.2-1.7,2-1.2,4-1.8,5.9-1.8s3.6.5,5.4,1.5c1.8,1.1,3.6,1.6,5.4,1.6s3.8-.6,5.8-1.8c1.5-.9,3-1.3,4.5-1.3v-.3Z"/>
        <path class="cls-1" d="M87.6,87.1c0,2.7-.9,5.1-2.2,7.4s-2.1,4.3-2.6,6.6c-1.6,8-2.1,16.2-1.7,24.4.7,11.8,3.2,23.4,7.5,34.4,1.3,3.4,2.7,6.7,4.2,10s1.5,2.8,2.5,4.1c1.7,2.1,3.4,4.2,4.1,6.9,1,4-1.2,7-5.4,7.1-3.1,0-5.9-.9-8.6-2.3-2.7-1.4-5.6-2.3-8.7-2-1.4.2-2.9.6-4.2,1.2-4.4,2.4-8.9,3.4-13.7,1.4-.4-.2-.9-.4-1.3-.6-4.8-3-9.6-2.6-14.5,0-2.7,1.4-5.5,2.4-8.6,2.3-4.3,0-6.5-3-5.4-7.2.7-2.8,2.5-4.9,4.3-7s1.1-1.5,1.5-2.3c5.1-10.7,8.9-21.9,10.9-33.5,1.6-9.1,2.1-18.4,1.1-27.6-.4-3.7-1-7.4-1.6-11s-.5-1.9-1-2.7c-1.6-2.7-3.1-5.5-3.2-8.8,0-.9,0-1.8.2-2.6.5-2.1,2.2-3.2,4.3-2.5,1.7.6,3.3,1.4,4.7,2.4,2.2,1.5,4.5,2.4,7.1,1.4,1-.4,1.8-1.1,2.6-1.8,2.7-2.1,5.2-2.3,8.1-.5.5.3,1,.7,1.4,1.1,2.3,1.9,4.8,2.1,7.4.7.7-.4,1.2-.9,1.9-1.3.8-.5,1.6-1.1,2.5-1.5,3.8-1.8,6.4-.1,6.4,4.1v-.3ZM78.1,98.1c.3-1.1.2-2.2-.3-3.2s-.4-.8-.7-1c-.9-.8-2,0-2.8.5-.9.6-1.7,1.4-2.5,2-1.4,1-3.1,1-4.3-.5-1.7-2.1-3.6-2.4-5.4-1s-4.7,1.7-6.7.2-.2-.1-.2-.2c-1.1-.8-2.3-1.9-3.8-1-1.4.8-1.3,2.5-.9,3.8.7,2.5,1.8,4.9,2.6,7.4.2.5.5,1,.6,1.6.5,4.2,1.2,8.5,1.3,12.7.1,7.8-.3,15.7-1.9,23.4-1.7,7.7-4.5,15-7.5,22.2s-.9,1.8-1.5,2.6c-1.7,2.3-3.3,4.6-3.7,7.5-.3,2.5,1.4,4.4,3.9,3.8,1.6-.4,3.1-1,4.5-1.8,3.4-2.1,6.7-2.3,10.1-.3,4.2,2.4,8.2,2.2,12.3-.2,2.3-1.4,4.8-1.6,7.4-.3,1.9,1,3.8,2,5.9,2.6,2.5.7,4.3-1.2,4-3.8-.3-2.2-1.1-4.1-2.5-5.7-1.9-2.3-3-4.9-4-7.5-3.3-8.3-6.4-16.8-7.2-25.8-.7-7.9-1.2-15.9-.5-23.8.3-3.2.9-6.3,2.4-9.3.8-1.4,1.2-3.1,1.6-4.8h-.2Z"/>
        <g>
          <path class="cls-2" d="M127.6,87.5c0,14.1-7.4,24.5-18.9,28.1-6.9,2.1-13.5,1-19.6-3.1-1.9-1.3-2.3-2.9-1.2-5,.4-.7.8-1.5,1.4-2.1,1.4-1.7,2.8-1.8,4.7-.8,1.7.9,3.5,2,5.4,2.4,5.9,1.2,10.9-.8,15.1-5.2,5.6-6.2,6.1-15.9,1-22.1-1-1.2-2.3-2.2-3.6-3.1-2.2-1.6-2.5-3-1.3-5.5,0-.2.2-.4.3-.5,1.8-3.1,3.7-3.5,6.6-1.4,6.8,5,9.8,11.9,9.9,18.3h.1ZM126.8,89.7c-.2-1.6-.2-3.1-.4-4.5-1.1-6.2-4-11.3-9.1-15.2-2.7-1.9-3.9-1.7-5.5,1.2,0,.1-.1.2-.2.3-1,1.9-.7,2.8,1,4.1,1.3,1.1,2.7,2.2,3.8,3.5,4.5,5.7,4.9,14.2,1,20.3-3.6,5.7-8.6,8.9-15.6,8.7-2.8,0-5.3-1.2-7.7-2.6-.7-.4-1.9-.8-2.5-.6-1.7.7-2.4,2.2-2.9,3.9-.4,1.5.6,2.4,1.8,3.1,7,4.5,14.5,4.9,21.9,1.2,9.6-4.8,14.2-13,14.7-23.6h-.2Z"/>
          <path class="cls-2" d="M25.3,107.4c2.9.2,5.6-.8,8-2.4s3.9-1.3,5.5,1.1c.3.5.6,1,.9,1.6,1,2.1.6,3.6-1.3,4.9-7.7,5.1-15.8,5.4-23.9,1.2-8.2-4.3-12.8-11.3-14.2-20.4-1.2-8.7,1.2-16.5,7.8-22.5,1-.9,2.2-1.7,3.4-2.4,1.4-.8,2.7-.6,3.8.6.5.5,1,1.2,1.3,1.8,1.5,2.7,1.2,4.1-1.3,5.9-6.7,4.8-8.7,14.2-4.7,21.6,2.6,4.8,6.5,7.9,11.9,8.9h2.6ZM1.2,89.5c0,1.1-.1,2.2,0,3.2,1.3,10.5,8.8,19.8,19.1,22.2,6.3,1.5,12.1.5,17.6-3.1.6-.4,1.3-1,1.4-1.6.4-2.1-.7-3.6-2.2-4.9-1.2-1.1-2.4-.3-3.5.4-3.1,2-6.5,2.9-10.2,2.4-10-1.5-17-11.2-15.2-21.3.8-4.7,3.2-8.4,7.1-11.1,1.8-1.3,2-2.3,1-4.3s-.5-.8-.8-1.2c-1.3-1.7-2.4-1.9-4.2-.7-6.9,4.8-10,11.6-10,19.9v.2Z"/>
          <path class="cls-2" d="M0,43.4c.6-10.5,5.1-18.9,15.1-23.6,6.7-3.1,13.4-2.7,19.9,1.2,1.9,1.1,2.3,2.4,1.5,4.5-.3.7-.7,1.4-1.1,2.1-1.2,1.8-2.7,2.3-4.5,1.1-7.9-5-17.7-.5-21,7.4-2.7,6.3-2.2,12.2,2.4,17.7.8,1,2,1.7,3,2.5,2.2,1.5,2.6,2.8,1.5,5.2-.1.3-.3.6-.4.8-1.6,2.7-3.1,3.1-5.7,1.4C4.7,59.9,1.4,54.3.4,47.4c-.2-1.2-.2-2.5-.4-3.9H0ZM1,42.8c.2,8.9,3.2,15.6,10.1,20.1,2.1,1.4,3.3,1.1,4.4-1.1.1-.2.3-.5.4-.7.9-2,.6-2.9-1.2-4.1-1.2-.8-2.4-1.7-3.3-2.7-5-5.9-5.4-14.2-1-20.9,4.3-6.7,13.1-10,20.7-5.4,1.7,1,2.7.7,3.8-1,.2-.4.5-.8.7-1.3.8-1.9.6-2.9-1.2-3.9-6.2-3.6-12.6-4-19.1-.8C5.9,25.5,1.7,33.4,1.2,43l-.2-.2Z"/>
          <path class="cls-2" d="M63.8,0c11.7,0,21.9,8.7,23.4,20.5.2,1.4.1,2.8,0,4.2,0,1.3-.8,2.3-2.1,2.5-1.2.2-2.5.3-3.7.1-1.8-.3-2.5-1.4-2.5-3.4,0-4-1.2-7.7-4-10.6-4.3-4.4-9.5-5.9-15.5-4.2-6.1,1.7-9.7,6-10.8,12.2-.2,1.1-.1,2.3-.3,3.5,0,.4-.2.9-.4,1.2-.8,1.3-3.1,1.9-5.4,1.3-1.7-.4-2.5-1.4-2.5-3.3-.1-5.5,1.4-10.4,4.8-14.8C49.6,3.1,55.9.1,63.7,0h.1ZM63.7,1c-4.3-.1-8.4,1-12.1,3.4-6.9,4.5-10.5,10.9-10.5,19.4s.5,2.3,1.7,2.5c1,.2,2.1.1,3.2,0s1.6-.9,1.7-2v-1.3c.4-6.3,3.4-11,9.1-13.8,5.7-2.7,11.3-2.2,16.5,1.5,4.5,3.2,6.5,7.6,6.6,13,0,1.7.5,2.4,1.9,2.6,1,.2,2,.1,3,0,1.2-.2,1.8-1,1.8-2.2,0-1.7,0-3.4-.4-5-2.1-10.6-11.3-18.2-22.5-18.1h0Z"/>
          <path class="cls-2" d="M105.1,17.8c7.7.4,14.4,4.8,18.9,12.5,2.5,4.2,3.7,8.9,3.5,13.7-.3,8-3.3,14.7-10.1,19.4-.5.3-1,.6-1.6.9-1.4.6-2.5.5-3.4-.7-.8-1.1-1.5-2.4-1.9-3.8-.5-1.7.6-2.8,1.9-3.6,2.3-1.3,4-3.2,5.2-5.5,5.2-10-1.4-23.2-12.7-24.1-2.6-.2-5,.5-7.3,1.8-2.6,1.5-3.9,1.2-5.5-1.5-.3-.5-.6-1.1-.8-1.6-.6-1.9-.2-3.1,1.5-4.2,3.3-2.2,7-3.2,12.4-3.2h0ZM126.7,45.6c0-9.7-2.9-16.3-8.7-21.5-6.7-5.9-16.4-7.4-24.3-2.6-1,.6-2,1.3-1.7,2.7.4,1.6,1,3.3,2.7,4,.4.2,1,0,1.5-.2s.9-.5,1.4-.7c2.7-1.5,5.6-2,8.7-1.6,10.7,1.7,16.8,13.6,13,23.4-1.3,3.3-3.3,5.9-6.4,7.8-1.7,1-1.9,2-1.1,3.7.2.4.4.8.6,1.2,1.2,2,2.3,2.3,4.2,1,6.9-4.5,9.9-11.1,10.1-17.4h-.1Z"/>
        </g>
        <g>
          <path class="cls-4" d="M126.8,89.7c-.6,10.5-5,18.8-14.7,23.6-7.3,3.7-14.8,3.3-21.9-1.2-1.1-.7-2.1-1.5-1.8-3.1.4-1.7,1.2-3.3,2.9-3.9.7-.3,1.8.1,2.5.6,2.4,1.5,4.9,2.6,7.7,2.6,6.9.2,11.9-3,15.6-8.7,3.9-6.2,3.5-14.7-1-20.3-1.1-1.3-2.4-2.4-3.8-3.5-1.6-1.3-1.9-2.3-1-4.1,0-.1.1-.2.2-.3,1.7-2.9,2.8-3.2,5.5-1.2,5.2,3.7,8.1,8.8,9.1,15.2.2,1.4.3,2.9.4,4.5h.2Z"/>
          <path class="cls-4" d="M1.2,89.5c0-8.3,3.1-15.2,10-19.9,1.8-1.2,2.9-1.1,4.2.7.3.4.6.8.8,1.2,1.1,1.9.8,3-1,4.3-3.9,2.7-6.2,6.4-7.1,11.1-1.8,10,5.1,19.8,15.2,21.3,3.7.5,7.1-.3,10.2-2.4,1.1-.7,2.2-1.5,3.5-.4,1.5,1.3,2.6,2.8,2.2,4.9-.1.6-.8,1.2-1.4,1.6-5.3,3.6-11.2,4.6-17.6,3.1-10.2-2.4-17.8-11.6-19.1-22.2-.1-1.1,0-2.2,0-3.2v-.2Z"/>
          <path class="cls-4" d="M1,42.8c.5-9.4,4.8-17.5,14.2-22.1,6.4-3.1,12.8-2.8,19.1.8,1.8,1,2.1,2,1.2,3.9-.2.4-.4.9-.7,1.3-1,1.7-2.1,2.1-3.8,1-7.4-4.6-16.4-1.3-20.7,5.4-4.3,6.7-3.9,15,1,20.9.9,1.1,2.1,1.9,3.3,2.7,1.8,1.3,2.1,2.1,1.2,4.1-.1.3-.2.5-.4.7-1.2,2.2-2.3,2.5-4.4,1.1C4,58,1.1,51.4.8,42.6l.2.2Z"/>
          <path class="cls-4" d="M63.7,1c11.1,0,20.4,7.4,22.5,18.1.3,1.6.3,3.3.4,5,0,1.2-.6,2-1.8,2.2-1,.1-2,.2-3,0-1.4-.2-1.8-.9-1.9-2.6-.1-5.4-2.1-9.9-6.6-13-5.2-3.6-10.7-4.2-16.5-1.5-5.7,2.7-8.7,7.4-9.1,13.8v1.3c0,1.1-.6,1.9-1.7,2-1,.1-2.2.2-3.2,0-1.3-.2-1.7-1-1.7-2.5,0-8.3,3.5-14.9,10.5-19.4,3.7-2.4,7.8-3.6,12.1-3.4h0Z"/>
          <path class="cls-4" d="M126.7,45.6c-.2,6.2-3.2,12.8-10.1,17.4-2,1.3-3,1-4.2-1-.2-.4-.4-.8-.6-1.2-.8-1.7-.5-2.7,1.1-3.7,3.1-1.8,5.2-4.5,6.4-7.8,3.7-9.7-2.3-21.7-13-23.4-3.1-.5-6,0-8.7,1.6-.5.2-.9.6-1.4.7-.5.2-1.1.3-1.5.2-1.7-.7-2.3-2.4-2.7-4-.3-1.4.7-2.1,1.7-2.7,7.9-4.7,17.7-3.3,24.3,2.6,5.8,5.2,8.7,11.6,8.7,21.5h.1Z"/>
        </g>
      </g>
    </g>
  </g>
</svg>