<?xml version="1.0" encoding="UTF-8"?>
<svg id="a" data-name="Camada_1" xmlns="http://www.w3.org/2000/svg" viewBox="0 0 595.28 841.89">
  <defs>
    <style>
      .b {
        fill: #369cc4;
      }

      .c {
        fill: #5cb8d6;
      }

      .d {
        fill: #175c91;
      }

      .e {
        fill: #217aab;
      }

      .f {
        fill: #b5e3f0;
      }

      .g {
        fill: #85cfe5;
      }
    </style>
  </defs>
  <path class="f" d="M361.74,0H0v841.89h404.56c32.49-92.67,52.93-227.34,52.93-377.23,0-208.14-39.42-386.92-95.76-464.66Z"/>
  <path class="g" d="M432.65,0h-70.92c56.34,77.74,95.76,256.52,95.76,464.66,0,149.9-20.45,284.56-52.93,377.23h48.98c21.98-108.76,34.73-238.25,34.73-377.23,0-178.47-21.03-341.29-55.62-464.66Z"/>
  <path class="g" d="M432.65,0h-70.92c56.34,77.74,95.76,256.52,95.76,464.66,0,149.9-20.45,284.56-52.93,377.23h48.98c21.98-108.76,34.73-238.25,34.73-377.23,0-178.47-21.03-341.29-55.62-464.66Z"/>
  <path class="d" d="M551.37,0c16.61,144.92,25.67,301.41,25.67,464.66,0,130.92-5.84,257.49-16.71,377.23h34.95V0h-43.91Z"/>
  <path class="e" d="M551.37,0h-34.85c20.24,141.58,31.53,298.91,31.53,464.66,0,132.35-7.2,259.34-20.4,377.23h32.69c10.88-119.75,16.71-246.32,16.71-377.23,0-163.24-9.06-319.74-25.67-464.66Z"/>
  <path class="b" d="M516.52,0h-40.86c25.62,135.74,40.35,294.71,40.35,464.66,0,134.67-9.26,262.44-25.84,377.23h37.47c13.21-117.89,20.4-244.88,20.4-377.23,0-165.74-11.28-323.08-31.53-464.66Z"/>
  <path class="c" d="M475.66,0h-43.01c34.59,123.37,55.62,286.18,55.62,464.66,0,138.99-12.75,268.47-34.73,377.23h36.63c16.59-114.79,25.84-242.56,25.84-377.23,0-169.95-14.74-328.91-40.35-464.66Z"/>
</svg>
